<svg xmlns="http://www.w3.org/2000/svg" xmlns:xlink="http://www.w3.org/1999/xlink" width="403.5" height="277.0600070953369"><g><text transform="translate(201.75, 20)" style="font-family: sans-serif; fill: rgb(59, 59, 59); font-size: 0.85rem; font-weight: bold; text-anchor: middle;"><tspan x="0" dy="0em">Proportion of Population With Access to Electricity, by</tspan><tspan x="0" dy="1.1em">Urban/Rural in Kenya</tspan></text></g><g transform="translate(10, 39.96000099182129)"><svg><svg xmlns="http://www.w3.org/2000/svg" height="193.10000610351562" width="383.5"><g transform="translate(0)"><svg xmlns="http://www.w3.org/2000/svg" xmlns:xlink="http://www.w3.org/1999/xlink" width="393" height="193.10000610351562" class="dc-async-element"><g class="x axis" transform="translate(0, 170)" fill="none" font-size="10" font-family="sans-serif" text-anchor="middle"><path class="domain" stroke="#999" d="M0,0.5H383.5" part="x-axis" transform="translate(0, 0)"/><g class="tick" opacity="1" transform="translate(36.093221765958376,0)"><line stroke="#999" y2="6" stroke-width="0.5" part="x-axis-tick"/><text fill="currentColor" y="9" dy="0.71em" part="x-axis-text">2000</text></g><g class="tick" opacity="1" transform="translate(118.83859598379176,0)"><line stroke="#999" y2="6" stroke-width="0.5" part="x-axis-tick"/><text fill="currentColor" y="9" dy="0.71em" part="x-axis-text">2005</text></g><g class="tick" opacity="1" transform="translate(201.53867990375005,0)"><line stroke="#999" y2="6" stroke-width="0.5" part="x-axis-tick"/><text fill="currentColor" y="9" dy="0.71em" part="x-axis-text">2010</text></g><g class="tick" opacity="1" transform="translate(284.2387638237083,0)"><line stroke="#999" y2="6" stroke-width="0.5" part="x-axis-tick"/><text fill="currentColor" y="9" dy="0.71em" part="x-axis-text">2015</text></g><g class="tick" opacity="1" transform="translate(366.9388477436666,0)"><line stroke="#999" y2="6" stroke-width="0.5" part="x-axis-tick"/><text fill="currentColor" y="9" dy="0.71em" part="x-axis-text">2020</text></g></g><g class="y axis" transform="translate(383, 0)" fill="none" font-size="10" font-family="sans-serif" text-anchor="end"><g class="tick" opacity="1" transform="translate(0,170.5)"><line stroke="currentColor" x2="-383" class="grid-line" part="y-axis-tick" style="stroke: rgb(153, 153, 153); stroke-width: 0.5; stroke-opacity: 0.5; stroke-dasharray: 2, 2;"/><text fill="currentColor" x="-383" dy="-4" class="tick-label" part="y-axis-text" style="fill: rgb(43, 41, 41); shape-rendering: crispedges; font-family: Roboto;" transform="translate(25.578125, 0)">0%</text></g><g class="tick" opacity="1" transform="translate(0,140.5)"><line stroke="currentColor" x2="-383" class="grid-line" part="y-axis-tick" style="stroke: rgb(153, 153, 153); stroke-width: 0.5; stroke-opacity: 0.5; stroke-dasharray: 2, 2;"/><text fill="currentColor" x="-383" dy="-4" class="tick-label" part="y-axis-text" style="fill: rgb(43, 41, 41); shape-rendering: crispedges; font-family: Roboto;" transform="translate(25.578125, 0)">20%</text></g><g class="tick" opacity="1" transform="translate(0,110.5)"><line stroke="currentColor" x2="-383" class="grid-line" part="y-axis-tick" style="stroke: rgb(153, 153, 153); stroke-width: 0.5; stroke-opacity: 0.5; stroke-dasharray: 2, 2;"/><text fill="currentColor" x="-383" dy="-4" class="tick-label" part="y-axis-text" style="fill: rgb(43, 41, 41); shape-rendering: crispedges; font-family: Roboto;" transform="translate(25.578125, 0)">40%</text></g><g class="tick" opacity="1" transform="translate(0,80.5)"><line stroke="currentColor" x2="-383" class="grid-line" part="y-axis-tick" style="stroke: rgb(153, 153, 153); stroke-width: 0.5; stroke-opacity: 0.5; stroke-dasharray: 2, 2;"/><text fill="currentColor" x="-383" dy="-4" class="tick-label" part="y-axis-text" style="fill: rgb(43, 41, 41); shape-rendering: crispedges; font-family: Roboto;" transform="translate(25.578125, 0)">60%</text></g><g class="tick" opacity="1" transform="translate(0,50.49999999999999)"><line stroke="currentColor" x2="-383" class="grid-line" part="y-axis-tick" style="stroke: rgb(153, 153, 153); stroke-width: 0.5; stroke-opacity: 0.5; stroke-dasharray: 2, 2;"/><text fill="currentColor" x="-383" dy="-4" class="tick-label" part="y-axis-text" style="fill: rgb(43, 41, 41); shape-rendering: crispedges; font-family: Roboto;" transform="translate(25.578125, 0)">80%</text></g><g class="tick" opacity="1" transform="translate(0,20.5)"><line stroke="currentColor" x2="-383" class="grid-line" part="y-axis-tick" style="stroke: rgb(153, 153, 153); stroke-width: 0.5; stroke-opacity: 0.5; stroke-dasharray: 2, 2;"/><text fill="currentColor" x="-383" dy="-4" class="tick-label" part="y-axis-text" style="fill: rgb(43, 41, 41); shape-rendering: crispedges; font-family: Roboto;" transform="translate(25.578125, 0)">100%</text></g></g><g class="highlight" style="opacity: 0;"><circle r="5" style="fill: rgb(147, 0, 0); stroke: rgb(255, 255, 255); opacity: 0;"/><circle r="5" style="fill: rgb(250, 197, 118); stroke: rgb(255, 255, 255); opacity: 1;" transform="translate(201.0235831377917,159.2)"/><circle r="5" style="fill: rgb(94, 79, 162); stroke: rgb(255, 255, 255); opacity: 0;"/><line x1="0" y1="0" x2="0" y2="170" style="stroke: rgb(59, 59, 59); stroke-opacity: 0.5;" transform="translate(201.0235831377917,0)"/></g><g class="chart-area"><path class="line chart-data-object legend-index-0" d="M383,55.25L366.4237509777082,62.75L333.36183352887497,78.2L316.83087480445835,86.30000000000001L250.6617496089167,109.85L234.08550058662493,112.85000000000001L217.55454186220834,115.69999999999997L167.9163753910833,124.55000000000001L151.38541666666666,127.55L134.85445794225,130.4L118.3234992178334,133.25L101.74725019554165,136.10000000000002L68.68533274670838,141.65L52.15437402229175,144.5L35.578125,147.2" part="series series-variable-Total" style="fill: none; stroke-width: 2.5px; stroke: rgb(147, 0, 0);"/><path class="line chart-data-object legend-index-1" d="M383,67.69999999999999L366.4237509777082,75.94999999999999L349.89279225329165,77.45L333.36183352887497,92.6L316.83087480445835,101.3L300.2546257821666,106.85L283.72366705775,126.49999999999999L267.1927083333333,132.35L250.6617496089167,126.05000000000001L234.08550058662493,128.75L217.55454186220834,131.45L201.0235831377917,159.2L184.49262441337507,154.85000000000002L167.9163753910833,139.4L151.38541666666666,142.1L134.85445794225,144.64999999999998L118.3234992178334,147.35L101.74725019554165,149.9L85.216291471125,159.65L68.68533274670838,155L52.15437402229175,157.55L35.578125,160.1" part="series series-variable-Rural" style="fill: none; stroke-width: 2.5px; stroke: rgb(250, 197, 118);"/><path class="line chart-data-object legend-index-2" d="M383,23.750000000000004L366.4237509777082,28.85000000000001L333.36183352887497,39.2L316.83087480445835,44.60000000000001L250.6617496089167,60.50000000000001L234.08550058662493,63.35L217.55454186220834,66.05000000000001L167.9163753910833,74.3L151.38541666666666,77L134.85445794225,79.69999999999999L118.3234992178334,82.25000000000001L101.74725019554165,84.94999999999999L68.68533274670838,90.05000000000001L52.15437402229175,92.6L35.578125,95.15" part="series series-variable-Urban" style="fill: none; stroke-width: 2.5px; stroke: rgb(94, 79, 162);"/></g></svg></g></svg></svg></g><g transform="translate(10, 263.0600070953369)"><text style="fill: rgb(59, 59, 59); font-family: sans-serif; font-size: 0.7rem;"><tspan x="0" dy="0em">Data from Global SDG Database via Data Commons</tspan></text></g></svg>